<svg xmlns="http://www.w3.org/2000/svg" xmlns:svg="http://www.w3.org/2000/svg" id="svg4" width="56.4" height="56.4" version="1.1" viewBox="0 0 56.4 56.4" style="fill:none"><metadata id="metadata10"/><defs id="defs8"><filter style="color-interpolation-filters:sRGB" id="filter827"><feFlood id="feFlood817" flood-color="#000" flood-opacity=".498" result="flood"/><feComposite id="feComposite819" in="flood" in2="SourceGraphic" operator="in" result="composite1"/><feGaussianBlur id="feGaussianBlur821" in="composite1" result="blur" stdDeviation="1"/><feOffset id="feOffset823" dx="0" dy="0" result="offset"/><feComposite id="feComposite825" in="SourceGraphic" in2="offset" operator="over" result="composite2"/></filter></defs><path id="path2" d="m 22.95,44.471499 h 0.5 v -0.5 -13.543 -0.5 h -0.5 -1.875 c -0.75942,0 -1.375,-0.6155 -1.375,-1.375 v -4.4785 c 0,-0.7594 0.61558,-1.375 1.375,-1.375 h 10.5 c 0.7594,0 1.375,0.6156 1.375,1.375 v 19.8965 0.5 h 0.5 1.875 c 0.7594,0 1.375,0.6156 1.375,1.375 v 4.4785 c 0,0.7594 -0.6156,1.375 -1.375,1.375 h -14.25 c -0.75942,0 -1.375,-0.6156 -1.375,-1.375 v -4.4785 c 0,-0.7594 0.61558,-1.375 1.375,-1.375 z m -1,-33.5215 c 0,-3.4518292 2.79817,-6.2499992 6.25,-6.2499992 3.4517,0 6.25,2.79818 6.25,6.2499992 0,3.4518 -2.7982,6.25 -6.25,6.25 -3.45183,0 -6.25,-2.7982 -6.25,-6.25 z" style="fill:#fff;fill-opacity:.87000002;stroke:#4d5858;filter:url(#filter827)"/></svg>