<svg xmlns="http://www.w3.org/2000/svg" xmlns:svg="http://www.w3.org/2000/svg" id="svg4" width="46.8" height="35.553" version="1.1" viewBox="0 0 46.8 35.553" style="fill:none"><metadata id="metadata10"/><defs id="defs8"><filter style="color-interpolation-filters:sRGB" id="filter911"><feFlood id="feFlood901" flood-color="#000" flood-opacity=".498" result="flood"/><feComposite id="feComposite903" in="flood" in2="SourceGraphic" operator="in" result="composite1"/><feGaussianBlur id="feGaussianBlur905" in="composite1" result="blur" stdDeviation=".7"/><feOffset id="feOffset907" dx="0" dy="0" result="offset"/><feComposite id="feComposite909" in="SourceGraphic" in2="offset" operator="over" result="composite2"/></filter></defs><path id="path2" d="m 15.9,12.962788 h 0.5 v -0.5 -7.5000001 c 0,-1.22863 1.4887,-1.835432 2.3496,-0.97457 L 31.8727,17.111288 c 3e-4,4e-4 6e-4,7e-4 0.001,0.001 0.5325,0.5393 0.5325,1.4117 0,1.951 -4e-4,3e-4 -7e-4,6e-4 -0.001,0.001 l -13.1231,13.1231 c -0.8609,0.8608 -2.3496,0.254 -2.3496,-0.9746 v -7.5 -0.5 H 15.9 5.2750001 c -0.76292,0 -1.375,-0.6121 -1.375,-1.375 v -7.5 c 0,-0.7629 0.61208,-1.375 1.375,-1.375 z m 20,19 h -6.5625 c -0.2395,0 -0.4375,-0.198 -0.4375,-0.4375 v -3.125 c 0,-0.2395 0.198,-0.4375 0.4375,-0.4375 H 35.9 c 1.659,0 3,-1.341 3,-3 V 9.9627879 c 0,-1.65896 -1.341,-3 -3,-3 h -6.5625 c -0.2395,0 -0.4375,-0.19802 -0.4375,-0.4375 v -3.125 c 0,-0.239483 0.198,-0.4375 0.4375,-0.4375 H 35.9 c 3.8645,0 7,3.13552 7,7 V 24.962788 c 0,3.8645 -3.1355,7 -7,7 z" style="fill:#fff;fill-opacity:.87000002;stroke:#4d5858;filter:url(#filter911)"/></svg>