<svg xmlns="http://www.w3.org/2000/svg" xmlns:svg="http://www.w3.org/2000/svg" id="svg4" width="56.4" height="56.4" version="1.1" style="fill:none"><metadata id="metadata10"/><defs id="defs8"><filter style="color-interpolation-filters:sRGB" id="filter827"><feFlood id="feFlood817" flood-color="#000" flood-opacity=".498" result="flood"/><feComposite id="feComposite819" in="flood" in2="SourceGraphic" operator="in" result="composite1"/><feGaussianBlur id="feGaussianBlur821" in="composite1" result="blur" stdDeviation="1"/><feOffset id="feOffset823" dx="0" dy="0" result="offset"/><feComposite id="feComposite825" in="SourceGraphic" in2="offset" operator="over" result="composite2"/></filter></defs><path id="path2" d="m 48.2,14.700001 v -0.5 H 8.1999998 v 4.563 l 0.184,0.15 c 2.1070002,1.716 5.4620002,4.38 12.6250002,9.99 0.245,0.192 0.542,0.44 0.876,0.718 0.682,0.57 1.515,1.264 2.358,1.868 0.639,0.458 1.31,0.885 1.972,1.197 0.654,0.309 1.335,0.522 1.985,0.514 0.65,0.008 1.33,-0.205 1.985,-0.514 0.662,-0.312 1.333,-0.74 1.971,-1.197 0.844,-0.604 1.677,-1.299 2.359,-1.867 0.333,-0.279 0.631,-0.527 0.876,-0.72 7.164,-5.61 10.519,-8.274 12.625,-9.989 l 0.184,-0.15 z m -40.0000002,27 v 0.5 H 48.2 v -18.938 l -0.812,0.647 c -2.146,1.71 -5.192,4.11 -9.835,7.746 h -10e-4 a 50.45,50.45 0 0 0 -1.031,0.844 c -0.886,0.737 -1.904,1.584 -3.055,2.34 -1.618,1.06 -3.405,1.871 -5.263,1.86 h -0.006 c -1.867,0.011 -3.67,-0.812 -5.294,-1.88 -1.154,-0.759 -2.169,-1.605 -3.041,-2.332 a 47.97,47.97 0 0 0 -1.015,-0.832 v 0 a 1597.942,1597.942 0 0 1 -9.8350002,-7.746 l -0.812,-0.647 z m 0.5,-31 H 47.7 a 4,4 0 0 1 4,4 v 27 a 4,4 0 0 1 -4,4 H 8.6999998 a 4,4 0 0 1 -4,-4 v -27 a 4,4 0 0 1 4,-4 z" fillOpacity=".87" style="fill:#fff;stroke:#4d5858;filter:url(#filter827)"/></svg>